HIERARCHY
ROOT root
{
	OFFSET 0.000000 0.000000 0.000000
	CHANNELS 6 Xposition Yposition Zposition Zrotation Yrotation Xrotation
	JOINT lhip
	{
		OFFSET 0.058581 -0.082280 -0.017664
		CHANNELS 3 Zrotation Yrotation Xrotation
		JOINT lknee
		{
			OFFSET 0.043451 -0.386469 0.008037
			CHANNELS 3 Zrotation Yrotation Xrotation
			JOINT lankle
			{
				OFFSET -0.014790 -0.426874 -0.037428
				CHANNELS 3 Zrotation Yrotation Xrotation
				JOINT ltoe
				{
					OFFSET 0.041054 -0.060286 0.122042
					CHANNELS 3 Zrotation Yrotation Xrotation
					End Site
					{
						OFFSET 0.000000 0.000000 0.000000
					}
				}
			}
		}
	}
	JOINT rhip
	{
		OFFSET -0.060310 -0.090513 -0.013543
		CHANNELS 3 Zrotation Yrotation Xrotation
		JOINT rknee
		{
			OFFSET -0.043257 -0.383688 -0.004843
			CHANNELS 3 Zrotation Yrotation Xrotation
			JOINT rankle
			{
				OFFSET 0.019056 -0.420046 -0.034562
				CHANNELS 3 Zrotation Yrotation Xrotation
				JOINT rtoe
				{
					OFFSET -0.034840 -0.062106 0.130323
					CHANNELS 3 Zrotation Yrotation Xrotation
					End Site
					{
						OFFSET 0.000000 0.000000 0.000000
					}
				}
			}
		}
	}
	JOINT lowerback
	{
		OFFSET 0.004439 0.124404 -0.038385
		CHANNELS 3 Zrotation Yrotation Xrotation
		JOINT upperback
		{
			OFFSET 0.004488 0.137956 0.026820
			CHANNELS 3 Zrotation Yrotation Xrotation
			JOINT chest
			{
				OFFSET -0.002265 0.056032 0.002855
				CHANNELS 3 Zrotation Yrotation Xrotation
				JOINT lowerneck
				{
					OFFSET -0.013390 0.211636 -0.033468
					CHANNELS 3 Zrotation Yrotation Xrotation
					JOINT upperneck
					{
						OFFSET 0.010113 0.088937 0.050410
						CHANNELS 3 Zrotation Yrotation Xrotation
						End Site
						{
							OFFSET 0.000000 0.000000 0.000000
						}
					}
				}
				JOINT lclavicle
				{
					OFFSET 0.071702 0.114000 -0.018898
					CHANNELS 3 Zrotation Yrotation Xrotation
					JOINT lshoulder
					{
						OFFSET 0.122921 0.045205 -0.019046
						CHANNELS 3 Zrotation Yrotation Xrotation
						JOINT lelbow
						{
							OFFSET 0.255332 -0.015649 -0.022946
							CHANNELS 3 Zrotation Yrotation Xrotation
							JOINT lwrist
							{
								OFFSET 0.265709 0.012698 -0.007375
								CHANNELS 3 Zrotation Yrotation Xrotation
								End Site
								{
									OFFSET 0.000000 0.000000 0.000000
								}
							}
						}
					}
				}
				JOINT rclavicle
				{
					OFFSET -0.082954 0.112472 -0.023707
					CHANNELS 3 Zrotation Yrotation Xrotation
					JOINT rshoulder
					{
						OFFSET -0.113228 0.046853 -0.008472
						CHANNELS 3 Zrotation Yrotation Xrotation
						JOINT relbow
						{
							OFFSET -0.260127 -0.014369 -0.031269
							CHANNELS 3 Zrotation Yrotation Xrotation
							JOINT rwrist
							{
								OFFSET -0.269108 0.006794 -0.006027
								CHANNELS 3 Zrotation Yrotation Xrotation
								End Site
								{
									OFFSET 0.000000 0.000000 0.000000
								}
							}
						}
					}
				}
			}
		}
	}
}
MOTION
Frames: 16
Frame Time: 0.033333
0.185221 -0.506398 0.978485 -5.830991 0.511431 91.624172 6.023119 -2.043309 -28.178861 -7.435122 -3.229060 13.644727 -6.680231 4.425672 -5.267282 0.000000 -0.000000 0.000000 -0.733586 -8.445076 5.447828 6.643454 -8.240153 2.921178 1.507894 -8.687193 -21.369564 0.000000 -0.000000 0.000000 -0.531609 7.459898 14.568246 0.277810 -1.218952 -8.236995 1.567719 2.077678 0.289698 1.341363 6.518527 -14.544034 1.386489 -5.238168 0.837805 -25.925892 4.461642 -4.108209 -45.372606 -2.125919 4.168972 14.732751 -24.530490 -8.011976 15.561841 -6.340092 -6.104400 24.223253 2.052707 -4.166200 50.628299 6.326101 13.937256 -0.920737 40.607607 1.477644 -7.105530 2.506358 -21.507737 
0.182278 -0.499618 0.977465 -6.836435 0.751928 91.513932 6.745202 -1.354579 -28.091449 -7.504243 -3.070238 13.087928 -6.538653 4.569771 -4.543231 0.000000 -0.000000 0.000000 -0.652947 -8.441067 5.328504 7.222968 -7.858377 2.400685 1.464964 -7.941507 -20.721945 0.000000 -0.000000 0.000000 -0.385153 7.325580 14.947660 0.270413 -1.143145 -8.574524 1.659896 2.077785 0.236947 1.288019 7.211553 -14.812049 1.767966 -4.745328 1.946134 -25.887918 4.111518 -4.163072 -45.275216 -3.042479 4.037361 14.915395 -25.026669 -8.436394 16.343240 -6.619922 -6.005712 24.240584 2.172453 -3.820487 50.369790 5.540504 13.752245 -0.352401 38.019220 2.251743 -7.854539 2.703424 -20.973200 
0.179546 -0.493006 0.976321 -7.616024 0.972913 91.523645 7.449491 -0.869816 -28.201092 -7.518472 -2.823457 12.654519 -6.630008 4.490133 -3.629934 0.000000 -0.000000 0.000000 -0.496268 -8.397227 5.183725 7.780221 -7.580191 1.692859 1.283026 -7.343194 -20.057595 0.000000 -0.000000 0.000000 -0.324749 7.137739 14.990223 0.342380 -1.153012 -8.528927 1.809418 1.971456 0.215440 1.263628 7.513117 -14.340974 1.917230 -4.029674 1.687231 -25.934264 4.140349 -4.283517 -45.197288 -3.928284 3.966559 15.352851 -26.807133 -8.986315 15.709455 -6.388416 -6.987341 24.264977 2.236069 -3.656576 50.309017 5.328771 13.623986 -0.360707 35.289769 2.687883 -7.529791 2.643336 -19.442470 
0.176841 -0.486654 0.975350 -8.393839 1.141072 91.548920 8.090551 -0.428355 -28.198006 -7.491600 -2.584105 12.075361 -6.640070 4.412945 -3.024324 0.000000 -0.000000 0.000000 -0.182497 -8.338014 5.063778 7.982121 -6.968535 0.927303 1.192624 -6.983738 -19.414479 0.000000 -0.000000 0.000000 -0.364628 7.027073 15.069266 0.426692 -1.202018 -8.734008 1.917761 1.898449 0.243842 1.259755 8.242466 -14.641320 2.189834 -3.478169 2.478362 -25.801864 3.932869 -4.347389 -45.461393 -4.761912 4.014119 15.950016 -28.179974 -9.347873 16.182300 -6.522165 -7.103996 24.508913 2.345697 -3.451743 50.443432 5.150492 13.408529 -0.937442 32.960811 2.244998 -7.602211 2.903542 -17.623451 
0.174107 -0.480246 0.974427 -9.203922 1.327650 91.634235 8.710484 0.219573 -28.237158 -7.457296 -2.386793 11.471570 -6.821481 4.361340 -2.451943 0.000000 -0.000000 0.000000 -0.144592 -8.900905 4.513301 8.469596 -6.598495 0.966183 1.224243 -5.938383 -18.915221 0.000000 -0.000000 0.000000 -0.388853 7.010021 15.144124 0.551885 -1.232537 -8.954680 1.983794 1.829314 0.220374 1.304912 8.872431 -14.824186 2.310582 -3.275161 3.355137 -25.628171 3.843610 -4.484386 -45.605398 -5.614291 4.230106 15.974142 -29.470017 -9.119722 16.137579 -6.546609 -7.531947 24.827310 2.322210 -3.393281 50.516686 5.483051 13.073614 -1.602657 30.452321 2.162965 -7.259964 2.907697 -16.007209 
0.171744 -0.475019 0.973938 -9.812253 1.468579 91.553079 9.140111 0.580941 -27.914529 -7.218510 -2.169120 10.595857 -6.913264 4.396471 -1.721344 0.000000 -0.000000 0.000000 0.037944 -8.993191 4.391583 8.748844 -6.285927 0.610079 1.268900 -5.479898 -18.305035 0.000000 -0.000000 0.000000 -0.463279 6.864613 15.010726 0.690430 -1.310606 -8.718392 2.066620 1.815143 0.060447 1.308445 9.297707 -14.532447 2.410888 -2.779766 3.861943 -25.481829 3.533201 -4.429724 -45.787418 -6.285433 4.547782 16.065667 -30.696136 -9.004045 16.408074 -6.477066 -7.619758 24.875552 2.651452 -3.207456 50.934456 5.694541 12.718521 -2.468993 28.095903 0.770648 -7.837568 2.893462 -15.242025 
0.169727 -0.469506 0.973420 -10.490699 1.537414 91.506474 9.443259 0.931894 -27.641236 -6.922063 -2.045759 9.757485 -7.008490 4.517327 -0.791445 0.000000 -0.000000 0.000000 0.225251 -8.679678 3.918363 8.938489 -6.232726 0.712531 1.160001 -5.249398 -18.010857 0.000000 -0.000000 0.000000 -0.488094 6.666584 15.265615 0.748908 -1.206166 -9.059826 2.093354 1.724260 0.010429 1.463155 9.561260 -14.518309 2.249194 -2.871716 4.995424 -25.436753 3.316053 -4.421496 -45.960628 -6.952341 4.965017 16.051479 -31.538595 -8.391938 16.231015 -6.575005 -7.766122 25.035388 2.841422 -3.180561 51.057407 6.097080 12.657826 -3.025140 26.087471 0.317730 -8.022665 2.617112 -15.338511 
0.168093 -0.465063 0.973112 -11.066107 1.523453 91.231538 9.604900 1.092034 -26.800057 -6.549721 -1.995327 8.470204 -7.171268 4.628737 -0.096012 0.000000 -0.000000 0.000000 0.414346 -7.851621 3.934599 8.969893 -6.339857 0.500141 1.106789 -5.286958 -17.656468 0.000000 -0.000000 0.000000 -0.540137 6.364700 15.552667 0.800115 -1.081003 -9.242571 2.149672 1.696724 0.000974 1.499736 9.800837 -14.431879 2.071361 -2.727146 6.114947 -25.457338 3.139836 -4.379076 -46.365705 -7.420135 5.311854 16.446534 -32.362734 -8.198208 15.046814 -6.851131 -7.383759 25.297871 3.150951 -3.135220 50.853839 6.415366 12.534239 -3.834831 24.651671 -0.458764 -6.628644 2.876377 -14.131477 
0.166436 -0.460675 0.972652 -11.630044 1.580212 91.050134 9.820136 1.385215 -26.134167 -6.265359 -2.007817 7.310020 -7.375986 4.590502 0.556887 0.000000 -0.000000 0.000000 0.756969 -7.172339 3.724654 8.882204 -6.335465 0.532885 1.058299 -5.379086 -17.466923 0.000000 -0.000000 0.000000 -0.409082 6.093793 15.687333 0.779386 -0.952540 -9.417556 2.107031 1.728613 -0.010768 1.397566 9.970723 -14.055206 1.935983 -2.546126 6.952076 -25.347976 2.943749 -4.283041 -46.831449 -7.878563 5.667025 16.431753 -32.918163 -8.040310 14.897799 -7.116671 -7.289680 25.379447 3.284199 -2.966611 50.948934 6.693919 12.430832 -4.369793 23.850485 -1.449161 -6.748317 2.747631 -13.223076 
0.165140 -0.456461 0.972403 -12.154064 1.552682 90.811300 9.887499 1.542828 -25.368652 -5.896928 -2.086272 6.064992 -7.521806 4.890361 1.147290 0.000000 -0.000000 0.000000 0.990225 -6.255917 3.683356 8.844277 -6.257164 0.289292 0.901605 -5.751330 -17.196208 0.000000 -0.000000 0.000000 -0.422254 5.788292 15.710751 0.780923 -0.762712 -9.362282 2.141586 1.738733 -0.149895 1.298802 10.138785 -13.554626 1.743398 -2.326362 7.756588 -25.383278 2.826220 -4.256767 -47.303482 -8.189511 6.094422 16.408646 -33.312878 -7.848871 14.726084 -6.826185 -7.647855 25.352739 3.514942 -2.903356 50.697702 6.960356 12.609711 -4.261520 23.239640 -1.448811 -6.983876 2.659743 -13.591518 
0.163700 -0.452211 0.971920 -12.774034 1.561562 90.666458 10.065661 1.862699 -24.727560 -5.595488 -1.785361 4.872754 -7.751640 4.976443 1.907856 0.000000 -0.000000 0.000000 0.985760 -6.051396 3.256629 9.023844 -6.304618 0.743767 0.694395 -5.238914 -17.269658 0.000000 -0.000000 0.000000 -0.405711 5.637915 15.523000 0.844962 -0.672514 -9.081041 2.147724 1.723125 -0.334494 1.281967 10.353643 -12.878213 1.439440 -2.078895 8.358412 -25.394169 2.846815 -4.194228 -47.770542 -8.310304 6.431821 16.230341 -33.549890 -7.440355 14.006406 -6.795028 -7.582512 25.468876 3.611337 -2.712313 50.313880 7.460817 12.615494 -4.341232 23.296479 -1.497462 -6.371922 2.621731 -13.587604 
0.162439 -0.448492 0.971608 -13.286450 1.617078 90.420281 10.227511 2.202196 -24.072600 -5.325222 -1.864815 3.920484 -7.924884 5.111069 2.398125 0.000000 -0.000000 0.000000 1.044470 -6.043091 3.126292 9.121609 -6.220099 0.962100 0.635066 -4.814861 -17.130485 0.000000 -0.000000 0.000000 -0.227048 5.450498 15.463159 0.877117 -0.633307 -8.908995 2.094966 1.811744 -0.547728 1.179242 10.564479 -12.228583 1.119643 -1.929770 9.109896 -25.466874 2.825807 -3.987790 -48.092622 -8.212981 6.782465 15.853630 -33.779333 -6.545592 14.078605 -6.820131 -7.736631 25.470015 3.684027 -2.509268 50.032582 7.969188 12.545999 -4.048443 23.219384 -0.899555 -6.928186 2.552276 -14.054400 
0.161105 -0.444602 0.971514 -13.892317 1.646718 90.217084 10.387939 2.806580 -23.501711 -5.108594 -1.605555 3.084833 -8.044165 4.979248 2.882103 0.000000 -0.000000 0.000000 0.706215 -7.008483 2.656024 9.582895 -5.996624 1.927562 0.766021 -3.461371 -17.144414 0.000000 -0.000000 0.000000 -0.068064 5.497482 15.387936 0.895333 -0.599698 -8.729323 2.087748 1.771226 -0.666368 1.210917 10.770401 -11.730901 0.735586 -1.840107 9.823312 -25.734419 2.941292 -4.056513 -48.165875 -7.987208 6.919564 15.303086 -33.829800 -5.840379 13.644026 -6.871755 -7.193671 25.597843 3.658743 -2.514602 49.770177 8.331350 12.388754 -3.975171 23.602207 -1.087477 -7.013986 2.502959 -13.613609 
0.158871 -0.438995 0.970961 -14.846175 1.894268 90.533026 11.109064 3.770391 -23.822636 -5.296815 -1.128208 2.870176 -8.034165 4.616241 3.213561 0.000000 -0.000000 0.000000 0.334632 -10.039066 0.861695 10.284053 -5.274262 4.477890 1.077849 -0.522053 -17.495307 0.000000 -0.000000 0.000000 0.139876 5.918739 14.906982 0.982594 -0.605837 -8.557649 2.082659 1.765375 -0.894794 1.118780 11.098365 -11.357368 0.308799 -1.848444 10.518753 -25.716898 3.085126 -4.237258 -48.336970 -7.550855 7.212180 14.432514 -33.364555 -4.798741 13.766500 -6.448991 -7.392592 25.838645 3.666080 -2.226491 49.266570 8.997518 11.909771 -3.469688 24.000570 -0.530974 -6.902323 2.423687 -13.519113 
0.158233 -0.436046 0.970633 -14.888743 1.708088 89.795467 10.907168 3.321899 -22.717118 -4.813628 -1.335652 1.943709 -8.426432 5.126080 3.592080 0.000000 -0.000000 0.000000 0.660662 -7.383907 2.048013 10.084691 -5.875374 2.936011 0.673269 -2.418757 -17.184070 0.000000 -0.000000 0.000000 0.195978 5.366424 15.628776 0.951118 -0.430380 -8.705103 2.042644 1.800432 -0.891595 0.964549 11.192351 -11.086136 0.061797 -1.599289 11.096889 -25.726845 2.972964 -3.897732 -48.623651 -7.336083 7.314603 14.111678 -32.260981 -4.692438 12.747491 -6.599677 -7.487426 25.830662 3.779747 -2.344746 49.156300 9.088986 12.327582 -3.436713 24.497787 -0.828131 -7.216586 2.279797 -14.059854 
0.156922 -0.432662 0.970019 -15.240183 1.715119 89.491911 11.054079 3.543225 -22.194056 -4.615305 -1.384027 1.375846 -8.820917 5.438743 3.447297 0.000000 -0.000000 0.000000 0.801811 -6.887367 2.311768 10.205664 -5.847015 2.524668 0.460829 -2.649217 -16.953893 0.000000 -0.000000 0.000000 0.339827 5.234301 15.664395 0.922488 -0.351810 -8.483368 2.098006 1.764915 -0.881054 0.860901 11.173876 -10.428100 -0.266373 -1.314407 10.943539 -25.902675 2.939349 -3.814654 -48.782664 -6.727570 7.356707 13.996885 -31.700999 -4.385398 13.696636 -6.072397 -6.805338 25.898977 4.020869 -2.210562 48.823433 9.414218 12.345698 -3.044984 24.859231 -0.592167 -8.020264 2.165915 -14.322666 
